<svg xmlns="http://www.w3.org/2000/svg" width="709.022" height="202.475" viewBox="0 0 709.022 202.475"><g transform="translate(-565.48 -313.478)"><path d="M-152.835,141.38c23,0,34.155-11.5,34.155-24.955,0-29.555-46.805-19.32-46.805-34.155,0-5.06,4.255-9.2,15.295-9.2A45.466,45.466,0,0,1-127.88,79.4l5.75-14.145c-7.475-4.715-17.825-7.13-27.945-7.13C-172.96,58.12-184,69.505-184,83.19c0,29.9,46.8,19.55,46.8,34.615,0,4.945-4.485,8.625-15.525,8.625a47.351,47.351,0,0,1-26.565-8.395l-6.325,14.03C-178.48,137.585-165.6,141.38-152.835,141.38Zm91.655,0c25.3,0,44.045-17.6,44.045-41.63S-35.88,58.12-61.18,58.12c-25.415,0-44.045,17.71-44.045,41.63S-86.6,141.38-61.18,141.38Zm0-15.87c-14.375,0-25.185-10.465-25.185-25.76s10.81-25.76,25.185-25.76S-36,84.455-36,99.75-46.805,125.51-61.18,125.51ZM41.63,141.38c25.3,0,44.045-17.6,44.045-41.63S66.93,58.12,41.63,58.12c-25.415,0-44.045,17.71-44.045,41.63S16.215,141.38,41.63,141.38Zm0-15.87c-14.375,0-25.185-10.465-25.185-25.76S27.255,73.99,41.63,73.99,66.815,84.455,66.815,99.75,56,125.51,41.63,125.51ZM160.885,59.5v48.875L120.865,59.5h-15.41V140h18.4V91.125L163.99,140h15.295V59.5Z" transform="translate(1094.217 373.573)" fill="none" stroke="#472b7a" stroke-width="2"/><path d="M-220.685,1.38c14.03,0,25.645-5.06,33.235-14.375l-11.96-11.04a25.654,25.654,0,0,1-20.24,9.545c-15.065,0-25.76-10.58-25.76-25.76s10.7-25.76,25.76-25.76a25.9,25.9,0,0,1,20.24,9.43l11.96-11.04c-7.59-9.2-19.2-14.26-33.12-14.26-25.07,0-43.7,17.365-43.7,41.63S-245.64,1.38-220.685,1.38Zm88.78,0c25.3,0,44.045-17.6,44.045-41.63S-106.6-81.88-131.9-81.88c-25.415,0-44.045,17.71-44.045,41.63S-157.32,1.38-131.9,1.38Zm0-15.87c-14.375,0-25.185-10.465-25.185-25.76s10.81-25.76,25.185-25.76,25.185,10.465,25.185,25.76S-117.53-14.49-131.9-14.49ZM22.655,0l-.23-80.5H7.13L-22.54-30.475-52.67-80.5H-68.08V0H-50.6V-47.265L-27.025-8.51h8.4L5.06-48.3,5.175,0Zm24.84,0h18.63V-80.5H47.495Zm98.9-80.5v48.875L106.375-80.5H90.965V0h18.4V-48.875L149.5,0h15.295V-80.5ZM244.03-17.94a29.575,29.575,0,0,1-14.49,3.45c-15.41,0-26.1-10.695-26.1-25.76,0-15.3,10.7-25.76,26.335-25.76a27.241,27.241,0,0,1,20.815,9.085l11.96-11.04c-7.82-9.085-19.55-13.915-33.695-13.915-25.645,0-44.275,17.365-44.275,41.63s18.63,41.63,43.93,41.63c11.5,0,23.69-3.565,32.545-10.235v-32.66H244.03Z" transform="translate(829.75 395.358)" fill="#472b7a"/></g></svg>