<svg xmlns="http://www.w3.org/2000/svg" width="128.906" height="22.046" viewBox="0 0 128.906 22.046"><path d="M2.827,0V-21.416h3.5V0ZM21.24,0,15.029-17.886h-.117q.249,3.984.249,7.471V0H11.982V-21.416h4.937L22.866-4.38h.088l6.123-17.036h4.951V0H30.659V-10.591q0-1.6.081-4.16t.139-3.105h-.117L24.331,0ZM48.926,0,42.715-17.886H42.6q.249,3.984.249,7.471V0H39.668V-21.416H44.6L50.552-4.38h.088l6.123-17.036h4.951V0H58.345V-10.591q0-1.6.081-4.16t.139-3.105h-.117L52.017,0ZM80.361,0H65.845V-2.607l5.522-5.552a46.974,46.974,0,0,0,3.245-3.552,8.481,8.481,0,0,0,1.165-1.97,5.312,5.312,0,0,0,.366-1.978,3.015,3.015,0,0,0-.872-2.285,3.34,3.34,0,0,0-2.41-.835,6.425,6.425,0,0,0-2.38.454,11.142,11.142,0,0,0-2.659,1.641l-1.86-2.271a12,12,0,0,1,3.472-2.139,10.163,10.163,0,0,1,3.589-.63,7.061,7.061,0,0,1,4.79,1.56,5.269,5.269,0,0,1,1.8,4.2,7.364,7.364,0,0,1-.52,2.754,11.192,11.192,0,0,1-1.6,2.688,36.489,36.489,0,0,1-3.582,3.743L70.2-3.179v.146H80.361ZM97.485-10.708q0,5.581-1.794,8.291A6.125,6.125,0,0,1,90.205.293a6.081,6.081,0,0,1-5.42-2.8q-1.846-2.8-1.846-8.2,0-5.669,1.794-8.357a6.127,6.127,0,0,1,5.471-2.688A6.085,6.085,0,0,1,95.64-18.94Q97.485-16.128,97.485-10.708Zm-11.06,0a15.6,15.6,0,0,0,.9,6.255,3,3,0,0,0,2.878,1.875,3.029,3.029,0,0,0,2.893-1.9,15.405,15.405,0,0,0,.916-6.226,15.526,15.526,0,0,0-.916-6.233,3.028,3.028,0,0,0-2.893-1.926,3,3,0,0,0-2.878,1.89A15.719,15.719,0,0,0,86.426-10.708ZM114.609,0H100.093V-2.607l5.522-5.552a46.974,46.974,0,0,0,3.245-3.552,8.481,8.481,0,0,0,1.165-1.97,5.312,5.312,0,0,0,.366-1.978,3.015,3.015,0,0,0-.872-2.285,3.34,3.34,0,0,0-2.41-.835,6.425,6.425,0,0,0-2.38.454,11.142,11.142,0,0,0-2.659,1.641l-1.86-2.271a12,12,0,0,1,3.472-2.139,10.163,10.163,0,0,1,3.589-.63,7.061,7.061,0,0,1,4.79,1.56,5.269,5.269,0,0,1,1.8,4.2,7.364,7.364,0,0,1-.52,2.754,11.192,11.192,0,0,1-1.6,2.688,36.489,36.489,0,0,1-3.582,3.743l-3.721,3.6v.146h10.166Zm17.124-10.708q0,5.581-1.794,8.291a6.125,6.125,0,0,1-5.486,2.71,6.081,6.081,0,0,1-5.42-2.8q-1.846-2.8-1.846-8.2,0-5.669,1.794-8.357a6.127,6.127,0,0,1,5.471-2.688,6.085,6.085,0,0,1,5.435,2.813Q131.733-16.128,131.733-10.708Zm-11.06,0a15.6,15.6,0,0,0,.9,6.255,3,3,0,0,0,2.878,1.875,3.029,3.029,0,0,0,2.893-1.9,15.405,15.405,0,0,0,.916-6.226,15.526,15.526,0,0,0-.916-6.233,3.028,3.028,0,0,0-2.893-1.926,3,3,0,0,0-2.878,1.89A15.719,15.719,0,0,0,120.674-10.708Z" transform="translate(-2.827 21.753)" fill="#472b7a"/></svg>