<svg id="Icons-Twitter" xmlns="http://www.w3.org/2000/svg" width="57" height="47.5" viewBox="0 0 57 47.5">
  <g id="Black">
    <path id="Twitter" d="M357,169.623a22.84,22.84,0,0,1-6.715,1.887,11.965,11.965,0,0,0,5.142-6.632A23.031,23.031,0,0,1,348,167.784,11.533,11.533,0,0,0,339.462,164a11.845,11.845,0,0,0-11.69,11.991,12.24,12.24,0,0,0,.3,2.731,32.924,32.924,0,0,1-24.105-12.533,12.209,12.209,0,0,0-1.582,6.035,12.07,12.07,0,0,0,5.2,9.98,11.481,11.481,0,0,1-5.3-1.5v.148a11.922,11.922,0,0,0,9.385,11.758,11.15,11.15,0,0,1-3.081.422,11.36,11.36,0,0,1-2.2-.213,11.739,11.739,0,0,0,10.924,8.323,23.091,23.091,0,0,1-14.524,5.136,23.4,23.4,0,0,1-2.79-.165,32.559,32.559,0,0,0,17.926,5.383c21.513,0,33.273-18.269,33.273-34.116,0-.522-.01-1.043-.03-1.554A24,24,0,0,0,357,169.623" transform="translate(-300 -164)" fill="#4f2f90" fill-rule="evenodd"/>
  </g>
</svg>
