<svg xmlns="http://www.w3.org/2000/svg" width="45.465" height="45.465" viewBox="0 0 45.465 45.465">
  <path id="Path_128" data-name="Path 128" d="M42.218,32H3.237A3.262,3.262,0,0,0,0,35.278V74.187a3.262,3.262,0,0,0,3.237,3.278h38.98a3.27,3.27,0,0,0,3.248-3.278V35.278A3.27,3.27,0,0,0,42.218,32ZM13.741,70.97H7v-21.7h6.749v21.7ZM10.372,46.309A3.907,3.907,0,1,1,14.279,42.4,3.909,3.909,0,0,1,10.372,46.309ZM39,70.97H32.262V60.416c0-2.517-.051-5.754-3.5-5.754-3.511,0-4.049,2.74-4.049,5.572V70.97H17.973v-21.7h6.465v2.963h.091a7.1,7.1,0,0,1,6.383-3.5c6.82,0,8.088,4.5,8.088,10.341Z" transform="translate(0 -32)" fill="#4f2f90"/>
</svg>
