<svg xmlns="http://www.w3.org/2000/svg" width="33.876" height="33.882" viewBox="0 0 33.876 33.882">
  <g id="brands-and-logotypes_1_" data-name="brands-and-logotypes (1)" transform="translate(-0.449)">
    <path id="Path_173" data-name="Path 173" d="M34.239,9.961a12.381,12.381,0,0,0-.788-4.11A8.679,8.679,0,0,0,28.493.894a12.412,12.412,0,0,0-4.11-.788C22.57.02,21.994,0,17.394,0s-5.176.02-6.983.1A12.384,12.384,0,0,0,6.3.887,8.267,8.267,0,0,0,3.3,2.846a8.342,8.342,0,0,0-1.953,3,12.414,12.414,0,0,0-.788,4.11c-.086,1.814-.106,2.39-.106,6.99s.02,5.176.1,6.983a12.38,12.38,0,0,0,.788,4.11A8.678,8.678,0,0,0,6.294,33a12.414,12.414,0,0,0,4.11.788c1.807.08,2.383.1,6.983.1s5.176-.02,6.983-.1A12.378,12.378,0,0,0,28.48,33a8.666,8.666,0,0,0,4.958-4.957,12.422,12.422,0,0,0,.788-4.11c.079-1.807.1-2.383.1-6.983S34.318,11.768,34.239,9.961ZM31.188,23.795a9.287,9.287,0,0,1-.583,3.144,5.62,5.62,0,0,1-3.217,3.217,9.32,9.32,0,0,1-3.144.582c-1.787.08-2.323.1-6.844.1s-5.063-.02-6.844-.1a9.282,9.282,0,0,1-3.144-.582,5.214,5.214,0,0,1-1.946-1.264A5.268,5.268,0,0,1,4.2,26.946,9.321,9.321,0,0,1,3.62,23.8c-.08-1.787-.1-2.323-.1-6.844s.02-5.063.1-6.844A9.282,9.282,0,0,1,4.2,6.97,5.15,5.15,0,0,1,5.473,5.024,5.26,5.26,0,0,1,7.419,3.76a9.326,9.326,0,0,1,3.144-.583c1.787-.079,2.323-.1,6.844-.1s5.063.02,6.844.1a9.287,9.287,0,0,1,3.144.583,5.21,5.21,0,0,1,1.946,1.264A5.267,5.267,0,0,1,30.605,6.97a9.325,9.325,0,0,1,.583,3.144c.079,1.787.1,2.323.1,6.844S31.267,22.008,31.188,23.795Zm0,0" fill="#f9b4ca"/>
    <path id="Path_174" data-name="Path 174" d="M133.653,124.5a8.7,8.7,0,1,0,8.7,8.7A8.706,8.706,0,0,0,133.653,124.5Zm0,14.35A5.646,5.646,0,1,1,139.3,133.2,5.647,5.647,0,0,1,133.653,138.85Zm0,0" transform="translate(-116.259 -116.259)" fill="#f9b4ca"/>
    <path id="Path_175" data-name="Path 175" d="M366.513,90.634a2.032,2.032,0,1,1-2.032-2.032A2.032,2.032,0,0,1,366.513,90.634Zm0,0" transform="translate(-338.04 -82.737)" fill="#f9b4ca"/>
  </g>
</svg>
