<svg xmlns="http://www.w3.org/2000/svg" width="25.608" height="31.519" viewBox="0 0 25.608 31.519">
  <g id="logotype" transform="translate(-48.004)">
    <g id="Group_363" data-name="Group 363" transform="translate(48.004)">
      <path id="Path_176" data-name="Path 176" d="M61.236,0C52.6,0,48,5.536,48,11.572c0,2.8,1.564,6.29,4.068,7.4.38.171.587.1.672-.254.075-.268.4-1.558.563-2.167A.557.557,0,0,0,53.173,16a7.178,7.178,0,0,1-1.491-4.356c0-4.21,3.347-8.3,9.042-8.3,4.925,0,8.371,3.2,8.371,7.776,0,5.171-2.736,8.749-6.292,8.749a2.817,2.817,0,0,1-2.969-3.455c.561-2.275,1.663-4.722,1.663-6.363a2.444,2.444,0,0,0-2.529-2.689c-2,0-3.629,1.984-3.629,4.647a6.625,6.625,0,0,0,.6,2.835s-1.982,8.006-2.35,9.5c-.623,2.531.085,6.631.146,6.984a.208.208,0,0,0,.378.1,24.821,24.821,0,0,0,3.262-6.144c.244-.9,1.247-4.551,1.247-4.551a5.446,5.446,0,0,0,4.594,2.191c6.036,0,10.4-5.305,10.4-11.889C73.59,4.722,68.189,0,61.236,0Z" transform="translate(-48.004)" fill="#f9b4ca"/>
    </g>
  </g>
</svg>
