<svg xmlns="http://www.w3.org/2000/svg" width="31.943" height="25.953" viewBox="0 0 31.943 25.953">
  <g id="brands-and-logotypes" transform="translate(0 -48)">
    <g id="Group_110" data-name="Group 110" transform="translate(0 48)">
      <path id="Path_3" data-name="Path 3" d="M31.943,51.072a13.653,13.653,0,0,1-3.773,1.034,6.512,6.512,0,0,0,2.881-3.62A13.087,13.087,0,0,1,26.9,50.072,6.548,6.548,0,0,0,15.57,54.55a6.743,6.743,0,0,0,.152,1.493,18.536,18.536,0,0,1-13.5-6.85,6.55,6.55,0,0,0,2.012,8.752,6.467,6.467,0,0,1-2.959-.807v.072a6.579,6.579,0,0,0,5.247,6.434,6.535,6.535,0,0,1-1.717.216,5.79,5.79,0,0,1-1.24-.112,6.611,6.611,0,0,0,6.119,4.562A13.158,13.158,0,0,1,1.567,71.1,12.266,12.266,0,0,1,0,71.015a18.436,18.436,0,0,0,10.046,2.939c12.05,0,18.639-9.982,18.639-18.635,0-.289-.01-.569-.024-.846A13.064,13.064,0,0,0,31.943,51.072Z" transform="translate(0 -48)" fill="#f9b4ca"/>
    </g>
  </g>
</svg>
