<svg xmlns="http://www.w3.org/2000/svg" width="37.461" height="23.417" viewBox="0 0 37.461 23.417">
  <g id="social-media" transform="translate(0 -4.5)">
    <path id="Path_164" data-name="Path 164" d="M19.3,20.809a5.541,5.541,0,0,0-4.207-5.817,4.92,4.92,0,0,0,3.147-4.8c0-4.577-3.422-5.693-7.37-5.693H0V27.482H11.175c4.19,0,8.126-2,8.126-6.672ZM5.067,8.423H9.823c1.828,0,3.474.512,3.474,2.626,0,1.951-1.28,2.737-3.091,2.737H5.067Zm0,15.156V17.25h5.523c2.231,0,3.642.927,3.642,3.282,0,2.321-1.684,3.047-3.747,3.047Z" transform="translate(0 0)" fill="#f9b4ca"/>
    <path id="Path_165" data-name="Path 165" d="M21.867,25.806c3.987,0,6.569-1.791,7.812-5.6H25.632c-.436,1.421-2.231,2.172-3.623,2.172-2.687,0-4.1-1.569-4.1-4.235H29.952c.381-5.336-2.591-9.884-8.087-9.884-5.088,0-8.541,3.812-8.541,8.806C13.324,22.251,16.6,25.806,21.867,25.806Zm-.144-14.091c2.3,0,3.461,1.349,3.655,3.555H17.917A3.58,3.58,0,0,1,21.723,11.715Z" transform="translate(7.477 2.111)" fill="#f9b4ca"/>
    <path id="Path_166" data-name="Path 166" d="M15.667,5.273h9.348V7.537H15.667Z" transform="translate(8.791 0.434)" fill="#f9b4ca"/>
  </g>
</svg>
