<svg xmlns="http://www.w3.org/2000/svg" width="39.519" height="39.519" viewBox="0 0 39.519 39.519">
  <path id="social-media_1_" data-name="social-media (1)" d="M.749,27.189,18.811,39.232a1.716,1.716,0,0,0,1.9,0L38.77,27.189a1.725,1.725,0,0,0,.749-1.411V13.738a1.725,1.725,0,0,0-.749-1.411L20.708.285a1.719,1.719,0,0,0-1.9,0L.749,12.327A1.725,1.725,0,0,0,0,13.738v12.04a1.725,1.725,0,0,0,.749,1.411Zm17.313,7.456L4.764,25.78,10.7,21.81l7.365,4.918Zm3.4,0V26.728l7.365-4.918,5.933,3.97ZM36.123,22.6l-4.256-2.844,4.256-2.845ZM21.457,4.872l13.3,8.865-5.933,3.97-7.365-4.918Zm-1.7,10.871,6,4.014-6,4.014-6-4.014Zm-1.7-10.871v7.917L10.7,17.708l-5.933-3.97ZM3.4,16.916v0L7.653,19.76,3.4,22.6Z" transform="translate(0 0)" fill="#f9b4ca"/>
</svg>
