<svg xmlns="http://www.w3.org/2000/svg" width="33.416" height="33.416" viewBox="0 0 33.416 33.416">
  <path id="web_1_" data-name="web (1)" d="M3.117,26.409l-.033.04.723.886c.2.246.409.486.621.713.109.117.218.233.3.3l.068.067c.178.178.357.356.547.539.157.149.32.292.5.45l.074.061c.058.043.112.088.168.135l.106.088c.231.192.462.367.666.508.267.2.561.4.892.612l-.035.014L8,30.968c.1.059.192.118.3.181.294.17.588.332.849.458.1.053.209.107.316.159l.2.1c.118.054.238.1.357.152s.235.1.354.151c.049.02.1.042.145.062l.286.159h.123l.224.084.007,0c.066.023.131.047.2.069s.157.048.235.073c.1.033.207.066.312.1.03.009.059.02.089.028a1.048,1.048,0,0,0,.127.039c.137.04.269.075.395.107.055.015.112.027.168.04l.052.013.021,0c.479.117.965.216,1.459.29l.1.019.185.023.308.035c.092.011.182.022.275.031l.041,0c.239.022.475.043.686.051.3.016.6.025.9.025.251,0,.492-.007.726-.018.1,0,.192-.01.288-.015.189-.011.386-.026.593-.045l.155-.015.114-.011.253-.03c.215-.024.439-.058.6-.09.056-.008.111-.023.167-.032.2-.035.4-.071.6-.114h.007c.156-.03.316-.067.462-.1.067-.016.133-.035.2-.052l.013,0c.105-.027.21-.053.313-.082l.319-.091c.054-.017.1-.033.152-.05l.006,0c.141-.045.285-.09.406-.133l.231-.072c.276-.1.551-.207.8-.312.031-.013.062-.029.094-.042l.024-.011c.241-.1.482-.208.717-.319.276-.13.543-.274.808-.418.235-.127.458-.26.68-.395l.259-.16c.175-.115.347-.227.518-.348.076-.049.157-.1.219-.151.16-.117.321-.235.478-.357l.143-.107c.217-.171.432-.35.64-.528l.2-.169.01-.018c.159-.143.316-.294.479-.451.213-.2.425-.425.632-.647s.4-.448.593-.676l.74-.889-.04-.049a16.651,16.651,0,0,0,0-19.4l.04-.049-.74-.888c-.189-.228-.389-.456-.595-.678s-.405-.42-.64-.654c-.156-.149-.311-.3-.469-.442l-.207-.187c-.208-.178-.424-.358-.64-.528l-.143-.107c-.157-.122-.315-.238-.464-.347-.074-.056-.157-.111-.233-.16-.171-.121-.343-.233-.518-.348l-.23-.151-.029-.01c-.221-.135-.445-.268-.677-.394-.268-.145-.535-.29-.81-.419s-.555-.258-.81-.361-.544-.223-.82-.323L22.108.9c-.194-.07-.388-.132-.619-.2L21.195.611c-.154-.044-.316-.088-.479-.126L20.523.439c-.092-.021-.187-.042-.277-.06L20.112.335h-.068c-.15-.033-.3-.062-.456-.087l-.1-.014c-.215-.041-.439-.074-.615-.094L18.532.1,18.439.09,18.361.084c-.222-.021-.441-.038-.645-.05L17.45.019a15.227,15.227,0,0,0-1.553,0c-.147.007-.293.02-.439.031-.111.009-.223.013-.333.024l-.036,0c-.1.01-.2.023-.3.035s-.205.022-.308.035l-.148.017c-.038.005-.077.014-.115.02-.354.054-.7.12-1.05.2l-.014,0c-.123.023-.238.051-.375.086-.042.009-.082.02-.124.03l-.133.032c-.127.032-.25.064-.354.1-.034.009-.094.024-.169.051L11.959.69c-.218.059-.428.126-.6.189-.067.022-.132.047-.2.07l-.008,0-.239.09,0,0-.13,0-.468.237c-.1.04-.194.084-.29.126-.118.052-.239.1-.357.152l-.2.1c-.108.054-.216.106-.265.134-.177.084-.354.177-.487.254-.114.061-.234.126-.35.193l-.332.2-.018.012-.293.148.034.013c-.053.034-.108.067-.162.1l-.14.095,0,0c-.193.128-.375.256-.521.365-.043.029-.086.06-.153.109-.157.11-.313.226-.463.355l-.1.081-.333.276c-.179.147-.359.3-.554.489L5.1,4.687a5.247,5.247,0,0,0-.393.391c-.1.094-.189.191-.278.288-.217.232-.424.471-.625.718l-.723.887.033.039a16.651,16.651,0,0,0,0,19.4ZM15.326,2.856c.455-.045.916-.07,1.382-.07a13.926,13.926,0,0,1,2.769.278l.048.01.163.054h.047a13.907,13.907,0,0,1,6.909,3.846,14.071,14.071,0,0,1-5.531,3.453l-.011-.035-.058.018c-.018-.045-.041-.088-.06-.132q-.164-.391-.348-.772c-.042-.087-.082-.175-.125-.262-.167-.331-.343-.658-.531-.977-.029-.049-.061-.1-.09-.143q-.244-.4-.511-.8c-.065-.095-.131-.187-.2-.28q-.238-.334-.492-.655c-.066-.083-.13-.167-.2-.248-.234-.286-.476-.565-.727-.835-.024-.026-.05-.05-.075-.076-.23-.243-.469-.478-.712-.707-.084-.079-.169-.155-.254-.231q-.3-.27-.612-.526c-.087-.071-.173-.143-.262-.213-.286-.225-.578-.443-.879-.65.088-.011.173-.031.261-.039Zm4.231,27.482-.081.017q-.659.134-1.338.2l-.022,0a14.067,14.067,0,0,1-1.408.071c-.468,0-.93-.025-1.386-.07l-.086-.01c-.09-.01-.176-.029-.265-.04.3-.206.592-.425.879-.65.088-.07.175-.142.262-.213q.312-.255.612-.526c.085-.076.171-.152.254-.231q.367-.344.712-.707c.024-.025.051-.05.075-.076.252-.269.493-.549.727-.835.067-.082.131-.166.2-.248q.253-.322.492-.655c.067-.093.133-.187.2-.28q.266-.391.511-.8c.029-.048.062-.1.09-.143.189-.32.364-.645.531-.977.044-.086.084-.175.125-.262.122-.254.239-.511.348-.772.019-.045.041-.088.06-.132l.058.018.011-.036a14.071,14.071,0,0,1,5.531,3.453A13.9,13.9,0,0,1,19.557,30.337Zm-1.294-7.911c-.15.331-.316.655-.492.973-.034.062-.067.125-.1.187q-.276.482-.591.941c-.042.063-.087.124-.131.185-.221.313-.451.619-.7.912l-.019.021c-.244.29-.5.567-.767.836-.049.05-.1.1-.148.15q-.4.393-.828.753c-.054.045-.109.089-.164.133-.3.244-.606.479-.925.7l0,0c-.32.219-.652.42-.989.612l-.187.106q-.5.272-1.012.5l-.061.027c-.342-.15-.678-.309-1-.485l-.116-.063a14,14,0,0,1-3.253-2.474,13.965,13.965,0,0,1,11.519-4.075C18.282,22.388,18.272,22.407,18.263,22.426ZM8.911,5.18l.029-.02a13.962,13.962,0,0,1,2.206-1.207l.066.028q.514.229,1.006.5c.065.035.128.072.193.109.336.192.667.392.986.61l.007,0c.318.218.624.452.922.7l.164.134q.429.36.828.753c.05.049.1.1.148.15.267.27.525.547.769.837l.018.02c.246.294.475.6.7.913.043.061.088.123.13.185.209.306.407.62.591.942.036.062.068.125.1.187.176.318.341.641.492.973.009.019.019.038.028.058A13.955,13.955,0,0,1,6.772,6.972,14.034,14.034,0,0,1,8.911,5.18Zm7.8,8.745a16.862,16.862,0,0,0,2.46-.188,13.787,13.787,0,0,1,0,5.945,16.909,16.909,0,0,0-2.46-.188A16.68,16.68,0,0,0,5.024,24.255a13.835,13.835,0,0,1,0-15.093A16.679,16.679,0,0,0,16.708,13.924ZM28.386,24.266a16.872,16.872,0,0,0-6.443-3.929l.024-.075-.072-.017a16.5,16.5,0,0,0,0-7.073l.072-.017-.024-.075a16.868,16.868,0,0,0,6.443-3.929,13.838,13.838,0,0,1,0,15.115Zm0,0" transform="translate(0 -0.001)" fill="#f9b4ca"/>
</svg>
