<svg xmlns="http://www.w3.org/2000/svg" width="36.984" height="36.984" viewBox="0 0 36.984 36.984">
  <path id="square" d="M18.492,0A18.564,18.564,0,0,0,0,18.492C0,27.16,6.082,35.033,14.158,36.984V30.866a4.453,4.453,0,0,1-4.991-2.22c-.42-.709-1.165-1.477-1.942-1.421l-.19-2.159a4.456,4.456,0,0,1,4,2.473,2.4,2.4,0,0,0,1.39,1.189,2.913,2.913,0,0,0,1.819-.158,5.079,5.079,0,0,1,1.274-2.606h0c-4.817-.718-6.736-3.274-7.5-5.291a8.485,8.485,0,0,1,1.317-8.138.29.29,0,0,0,.073-.224,7.093,7.093,0,0,1,.216-4.735c.945.279,1.1-.281,4.1,1.545l.519.312c.217.13.149.056.366.039a15.693,15.693,0,0,1,3.881-.546,15.761,15.761,0,0,1,3.934.56l.168.017c-.015,0,.046-.011.147-.071C26.5,7.157,26.361,7.9,27.368,7.573a7.214,7.214,0,0,1,.211,4.737c-.109.336,3.255,3.417,1.39,8.361-.762,2.018-2.681,4.573-7.5,5.292h0c.617.941,1.359,1.442,1.355,3.383v7.637C30.9,35.033,36.984,27.16,36.984,18.492A18.564,18.564,0,0,0,18.492,0Zm0,0" fill="#f9b4ca"/>
</svg>
