<svg id="Icons-Instagram" xmlns="http://www.w3.org/2000/svg" width="45.465" height="45.465" viewBox="0 0 45.465 45.465">
  <g id="Black">
    <path id="Instagram" d="M522.733,160c-6.174,0-6.948.026-9.373.137a16.684,16.684,0,0,0-5.518,1.057,11.624,11.624,0,0,0-6.648,6.648,16.683,16.683,0,0,0-1.057,5.518c-.111,2.425-.137,3.2-.137,9.373s.026,6.948.137,9.373a16.683,16.683,0,0,0,1.057,5.518,11.624,11.624,0,0,0,6.648,6.648,16.688,16.688,0,0,0,5.518,1.057c2.425.111,3.2.137,9.373.137s6.948-.026,9.373-.137a16.687,16.687,0,0,0,5.518-1.057,11.624,11.624,0,0,0,6.648-6.648,16.684,16.684,0,0,0,1.057-5.518c.111-2.425.137-3.2.137-9.373s-.026-6.948-.137-9.373a16.684,16.684,0,0,0-1.057-5.518,11.623,11.623,0,0,0-6.648-6.648,16.683,16.683,0,0,0-5.518-1.057C529.681,160.026,528.906,160,522.733,160Zm0,4.1c6.07,0,6.789.023,9.186.133a12.577,12.577,0,0,1,4.221.783,7.529,7.529,0,0,1,4.314,4.314,12.579,12.579,0,0,1,.783,4.221c.109,2.4.133,3.116.133,9.186s-.023,6.789-.133,9.186a12.579,12.579,0,0,1-.783,4.221,7.529,7.529,0,0,1-4.314,4.314,12.576,12.576,0,0,1-4.221.783c-2.4.109-3.116.133-9.186.133s-6.789-.023-9.186-.133a12.577,12.577,0,0,1-4.221-.783,7.529,7.529,0,0,1-4.314-4.314,12.58,12.58,0,0,1-.783-4.221c-.109-2.4-.132-3.116-.132-9.186s.023-6.789.132-9.186a12.579,12.579,0,0,1,.783-4.221,7.529,7.529,0,0,1,4.314-4.314,12.578,12.578,0,0,1,4.221-.783C515.944,164.119,516.663,164.1,522.733,164.1Zm0,6.963a11.674,11.674,0,1,0,11.673,11.674A11.673,11.673,0,0,0,522.733,171.059Zm0,19.251a7.578,7.578,0,1,1,7.577-7.577A7.578,7.578,0,0,1,522.733,190.31ZM537.6,170.6a2.728,2.728,0,1,1-2.728-2.728A2.728,2.728,0,0,1,537.6,170.6Z" transform="translate(-500 -160)" fill="#4f2f90" fill-rule="evenodd"/>
  </g>
</svg>
