<svg id="Icons-Facebook" xmlns="http://www.w3.org/2000/svg" width="45.319" height="45.319" viewBox="0 0 45.319 45.319">
  <g id="Black">
    <path id="Facebook" d="M224.206,205.319H202.5a2.5,2.5,0,0,1-2.5-2.5V162.5a2.5,2.5,0,0,1,2.5-2.5h40.316a2.5,2.5,0,0,1,2.5,2.5v40.316a2.5,2.5,0,0,1-2.5,2.5H231.269v-17.55h5.891l.882-6.84h-6.773v-4.367c0-1.98.55-3.33,3.389-3.33l3.622,0v-6.117a48.421,48.421,0,0,0-5.278-.27c-5.222,0-8.8,3.187-8.8,9.041v5.044H218.3v6.84h5.906v17.55Z" transform="translate(-200 -160)" fill="#4f2f90" fill-rule="evenodd"/>
  </g>
</svg>
