<svg id="logo" xmlns="http://www.w3.org/2000/svg" width="26.308" height="26.308" viewBox="0 0 26.308 26.308">
  <path id="Path_167" data-name="Path 167" d="M25.485,25.58h.007V15.93c0-4.72-1.016-8.356-6.534-8.356A5.728,5.728,0,0,0,13.8,10.41h-.077v-2.4H8.489V25.578h5.448v-8.7c0-2.29.434-4.5,3.27-4.5,2.794,0,2.836,2.613,2.836,4.651V25.58Z" transform="translate(0.816 0.728)" fill="#f9b4ca"/>
  <path id="Path_168" data-name="Path 168" d="M.4,7.977H5.85V25.541H.4Z" transform="translate(0.038 0.767)" fill="#f9b4ca"/>
  <path id="Path_169" data-name="Path 169" d="M3.159,0A3.174,3.174,0,1,0,6.318,3.159,3.16,3.16,0,0,0,3.159,0Z" fill="#f9b4ca"/>
</svg>
